<svg xmlns="http://www.w3.org/2000/svg" viewBox="0 0 605.28 263.83"><defs><style>.cls-1{fill:#60a2a2;}.cls-2{fill:#e0dbc0;}.cls-3{fill:#433930;}.cls-4{fill:#abd5cb;}</style></defs><g id="Calque_2" data-name="Calque 2"><g id="Calque_1-2" data-name="Calque 1"><circle class="cls-1" cx="73.24" cy="155.87" r="73.24"/><path class="cls-2" d="M10,165.92a8,8,0,0,1-.59-11.13c9.65-11.13,33.19-34.14,63.46-35.23,30.61-1.09,56.78,23.58,67.39,35.22a8,8,0,0,1-.49,11.3c-11.48,10.63-39,33.3-64.8,33.3S21.38,176.48,10,165.92Z"/><circle class="cls-3" cx="73.51" cy="159.45" r="33.25" transform="translate(-56.52 41.47) rotate(-23.03)"/><circle class="cls-4" cx="65.11" cy="157.27" r="17.07" transform="translate(-18.41 8.95) rotate(-6.89)"/><circle class="cls-2" cx="81.54" cy="151.17" r="5.2" transform="translate(-12.15 7.21) rotate(-4.71)"/><rect class="cls-3" x="294.26" y="159.07" width="309.51" height="104.15"/><path class="cls-2" d="M362.31,205.65h-23.7a1.11,1.11,0,0,0-1.11,1.11v11.59a1.11,1.11,0,0,0,1.11,1.11h9.24v14.4s-2.07.7-7.81.7c-6.77,0-16.23-2.47-16.23-23.27s9.85-23.55,19.09-23.55c8,0,11.46,1.41,13.65,2.09a1.11,1.11,0,0,0,1.33-1.08l2.64-11.2a1,1,0,0,0-.42-.87c-.89-.63-6.33-3.67-20.06-3.67C324.22,173,308,179.74,308,212.1s18.59,37.18,34.25,37.18c13,0,20.83-5.54,20.83-5.54a1,1,0,0,0,.36-.84V206.76A1.11,1.11,0,0,0,362.31,205.65Z"/><path class="cls-2" d="M484.46,176.88a1.11,1.11,0,0,0-1.1-1.11H470a1.11,1.11,0,0,0-1.1,1.11v25.79h-20.8V176.88a1.11,1.11,0,0,0-1.1-1.11H433.66a1.11,1.11,0,0,0-1.1,1.11v69.84a1.12,1.12,0,0,0,1.1,1.12H447a1.11,1.11,0,0,0,1.1-1.12V216.85h20.8l0,29.87a1.11,1.11,0,0,0,1.1,1.12h13.38a1.11,1.11,0,0,0,1.1-1.12Z"/><path class="cls-2" d="M387.49,186.05a8.61,8.61,0,1,0-8.6,8.69A8.64,8.64,0,0,0,387.49,186.05Z"/><path class="cls-2" d="M386.54,232V199.75a1.11,1.11,0,0,0-1.1-1.11H372.13a1.27,1.27,0,0,0-1.15,1.24v46.18c0,1.36.84,1.76,1.94,1.76h12c1.32,0,1.64-.64,1.64-1.78Z"/><path class="cls-2" d="M535.18,198.74H521.94a1.12,1.12,0,0,0-1.11,1.12V234.1a15,15,0,0,1-8.14,2.46c-4.77,0-6-2.16-6-6.84V199.86a1.11,1.11,0,0,0-1.1-1.12H492.11a1.11,1.11,0,0,0-1.1,1.12V232c0,13.89,7.74,17.29,18.38,17.29a31,31,0,0,0,15.78-4.83,28.56,28.56,0,0,0,.49,2.85,1.16,1.16,0,0,0,1,.6l8.56,0a1.11,1.11,0,0,0,1.1-1.11V199.86A1.11,1.11,0,0,0,535.18,198.74Z"/><path class="cls-2" d="M571.38,197.17a24.86,24.86,0,0,0-12.64,3.36V176.88a1.11,1.11,0,0,0-1.1-1.11H544.25a1.11,1.11,0,0,0-1.1,1.11v69.84a1.11,1.11,0,0,0,1.1,1.12h9.29a1.12,1.12,0,0,0,1-.6,21.66,21.66,0,0,0,.56-3.22s5.47,5.19,15.84,5.19c12.16,0,19.13-6.17,19.13-27.7S578.9,197.17,571.38,197.17Zm-5.23,39.35a15.93,15.93,0,0,1-7.71-2.22V212.18a17.77,17.77,0,0,1,6.85-2.22c4.77-.43,9.36,1,9.36,12.39C574.65,234.35,572.58,236.71,566.15,236.52Z"/><path class="cls-2" d="M424.9,198.63h-10V185.41c0-.5-.26-.75-.84-.75H400.39c-.53,0-.81.23-.81.74v13.67s-6.84,1.65-7.3,1.78a1.11,1.11,0,0,0-.8,1.06v8.59a1.11,1.11,0,0,0,1.1,1.12h7v20.66c0,15.35,10.76,16.85,18,16.85a30.16,30.16,0,0,0,7.95-1.31,1,1,0,0,0,.63-1v-9.44a1.13,1.13,0,0,0-1.11-1.12c-.58,0-2.08.24-3.61.24-4.92,0-6.59-2.29-6.59-5.25V211.62h10a1.11,1.11,0,0,0,1.1-1.12V199.74A1.11,1.11,0,0,0,424.9,198.63Z"/><path class="cls-1" d="M179.21,117.9c3.39,4,9.21,10.18,21.16,10.18,10.66,0,18.41-5.82,18.41-17,0-18.41-37.95-14.86-37.95-37.15,0-11.14,8.72-19.7,22.28-19.7,8.4,0,17.13,4.36,21,9l-3.71,5.33c-1.94-2.26-9.05-8.07-17.77-8.07-11.31,0-14.86,7.26-14.86,12.59,0,16.64,38.44,14.54,38.44,38,0,14-11.31,23.42-26,23.42-12.76,0-21.64-6.3-25.68-11.79Z"/><path class="cls-1" d="M310.84,120.49c-6,8.23-17.12,13.89-31.33,13.89-22,0-38.44-16-38.44-39.41,0-24.07,14.7-40.54,38.28-40.54,23.09,0,33.43,18.57,33.43,37.15V93H248.5c0,2.1.16,4.2.16,5,1.46,19.7,15.83,29.71,32.3,29.71,13.73,0,22.13-6.62,25.85-11.46Zm-5.65-33.92C303.57,72.84,295,61.05,278.7,61.05c-15.66,0-25.84,9.69-28.91,21.32a29,29,0,0,0-.81,4.2Z"/><path class="cls-1" d="M383.2,80.11c0-10.82-8.24-19.06-23.1-19.06a57.64,57.64,0,0,0-21.32,4.52l-3.23-5.65a55.06,55.06,0,0,1,24.23-5.49c24.39,0,30.53,11.47,30.53,27.78v41c-7.59,7.27-19.06,11.15-32.63,11.15-21.8,0-31.82-13.09-31.82-27.46,0-17,18.58-25,31.66-25,10,0,19.38,3.39,25.68,9.53Zm0,18.57a36.08,36.08,0,0,0-25.36-10.33c-10.66,0-24.55,5.65-24.55,18.57,0,14,11.79,20.83,24.71,20.83,11.31,0,19.71-3.23,25.2-7.59Z"/><path class="cls-1" d="M414.05,132.44V56.37h7.11v10.5c.48-3.4,7.43-12.44,16.15-12.44,5.33,0,11.3,2.74,12.43,3.39l-4.2,6.78a15.38,15.38,0,0,0-8.39-2.9c-8.89,0-15,9.69-16,15.34v55.4Z"/><path class="cls-1" d="M525.5,121.13c-7.11,9.37-18.74,13.25-30.53,13.25-22.29,0-39.41-16.64-39.41-39.73,0-23.26,16.48-40.22,39.89-40.22,14.86,0,24.39,8.07,26.33,10.5l-4.2,4.84c-1.78-1.94-9.85-8.72-22.77-8.72-15,0-31.82,10.5-31.82,33.6,0,21.15,15.18,33.1,32.63,33.1,12.92,0,20.35-4.84,26.16-11Z"/><path class="cls-1" d="M598.18,132.44V85.92c0-17.6-6.79-24.38-22.78-24.38a35.92,35.92,0,0,0-25,10.66v60.24h-7.11V0h7.11V64.6a38.54,38.54,0,0,1,26.16-10.17c18.25,0,28.75,8.88,28.75,28.59v49.42Z"/><path class="cls-1" d="M181,171.6a6.46,6.46,0,1,1,0-12.92,6.46,6.46,0,1,1,0,12.92Zm-3.56,92.23V187.76h7.11v76.07Z"/><path class="cls-1" d="M265.62,263.83V217.31c0-17.6-6.78-24.39-22.77-24.39a36,36,0,0,0-25,10.66v60.25h-7.1V187.76h7.1V196A38.55,38.55,0,0,1,244,185.82c18.25,0,28.75,8.88,28.75,28.58v49.43Z"/></g></g></svg>